<?xml version="1.0"?><svg fill="#000000" xmlns="http://www.w3.org/2000/svg"  viewBox="0 0 30 30" width="30px" height="30px">    <path d="M15.22,5c0.894,0,3.921,0.241,5.347,3.336c0.476,1.033,0.358,2.842,0.263,4.296l-0.004,0.064 c-0.013,0.203-0.026,0.399-0.037,0.587c0.023,0.023,0.205,0.192,0.617,0.208h0.001c0.313-0.012,0.673-0.108,1.067-0.287 c0.116-0.053,0.244-0.064,0.332-0.064c0.134,0,0.269,0.025,0.381,0.071l0.007,0.003c0.319,0.109,0.528,0.326,0.533,0.553 c0.004,0.213-0.164,0.534-0.988,0.849c-0.085,0.033-0.194,0.066-0.311,0.102c-0.471,0.145-1.182,0.364-1.4,0.861 c-0.119,0.272-0.081,0.603,0.114,0.985c0.002,0.004,0.004,0.007,0.005,0.011c0.059,0.134,1.483,3.278,4.662,3.785 c0.117,0.019,0.201,0.12,0.194,0.235c-0.003,0.043-0.014,0.086-0.032,0.129c-0.131,0.297-0.722,0.718-2.79,1.027 c-0.169,0.025-0.235,0.238-0.335,0.685c-0.037,0.163-0.074,0.323-0.125,0.491c-0.044,0.145-0.138,0.214-0.296,0.214H22.4 c-0.109,0-0.266-0.019-0.463-0.056c-0.35-0.066-0.742-0.127-1.242-0.127c-0.291,0-0.593,0.025-0.896,0.073 c-0.621,0.1-1.147,0.461-1.704,0.842C17.281,24.427,16.445,25,15.141,25c-0.057,0-0.113-0.002-0.168-0.005 C14.938,24.998,14.901,25,14.864,25c-1.303,0-2.14-0.573-2.949-1.126c-0.558-0.382-1.085-0.744-1.707-0.843 c-0.303-0.048-0.604-0.073-0.896-0.073c-0.525,0-0.94,0.078-1.242,0.135c-0.184,0.035-0.343,0.065-0.463,0.065 c-0.126,0-0.262-0.026-0.322-0.223c-0.051-0.17-0.089-0.335-0.125-0.494c-0.093-0.41-0.158-0.662-0.335-0.688 c-2.067-0.309-2.659-0.731-2.79-1.03c-0.018-0.043-0.029-0.085-0.032-0.128c-0.006-0.115,0.078-0.216,0.194-0.235 c3.177-0.507,4.602-3.653,4.662-3.786c0.002-0.004,0.004-0.007,0.005-0.011c0.194-0.382,0.233-0.714,0.114-0.985 c-0.218-0.498-0.929-0.716-1.4-0.861c-0.115-0.035-0.225-0.069-0.311-0.102c-0.94-0.36-1.017-0.729-0.981-0.917 c0.063-0.321,0.505-0.545,0.863-0.545c0.098,0,0.184,0.017,0.257,0.05c0.423,0.192,0.804,0.289,1.132,0.289 c0.454,0,0.653-0.185,0.676-0.209c-0.012-0.208-0.026-0.425-0.04-0.65C9.08,11.179,8.963,9.372,9.437,8.339 c1.424-3.094,4.446-3.334,5.337-3.334C14.799,5.004,15.167,5,15.167,5H15.22 M15.22,3h-0.053c-0.013,0-0.235,0.004-0.392,0.007 V3.005c-1.193,0-5.233,0.324-7.154,4.497c-0.484,1.052-0.562,2.356-0.526,3.652c-1.151,0.023-2.498,0.778-2.77,2.157 c-0.099,0.509-0.229,2.23,2.227,3.172c0.013,0.005,0.027,0.01,0.041,0.015c-0.491,0.701-1.394,1.677-2.71,1.887 c-1.131,0.177-1.94,1.175-1.876,2.321c0.018,0.286,0.082,0.552,0.191,0.805c0.513,1.17,1.756,1.702,3.177,2.012 c0.307,0.994,1.181,1.633,2.233,1.633c0.305,0,0.581-0.052,0.825-0.098c0.271-0.051,0.541-0.102,0.88-0.102 c0.186,0,0.381,0.016,0.582,0.048c0.174,0.028,0.568,0.297,0.884,0.514c0.916,0.627,2.161,1.48,4.085,1.48 c0.042,0,0.084-0.001,0.125-0.002C15.039,26.999,15.09,27,15.141,27c1.915,0,3.161-0.849,4.071-1.469 c0.351-0.24,0.728-0.498,0.905-0.526c0.196-0.031,0.392-0.047,0.578-0.047c0.319,0,0.569,0.035,0.869,0.092 c0.33,0.062,0.595,0.091,0.835,0.091c1.062,0,1.926-0.635,2.231-1.618c1.419-0.308,2.661-0.837,3.17-1.992 c0.117-0.271,0.181-0.537,0.198-0.808c0.065-1.156-0.739-2.154-1.869-2.338c-1.321-0.211-2.226-1.187-2.716-1.887 c0.015-0.005,0.029-0.011,0.042-0.016c2.004-0.767,2.283-2.053,2.271-2.751c-0.022-1.069-0.743-2.002-1.842-2.396 c-0.278-0.112-0.624-0.183-0.975-0.195c0.033-1.272-0.047-2.601-0.526-3.643C20.461,3.325,16.415,3,15.22,3L15.22,3z"/></svg>